<?xml version="1.0" encoding="UTF-8"?>
<svg version="1.1" xmlns="http://www.w3.org/2000/svg" width="84" height="84">
<path d="M0 0 C7.68048859 5.9907811 13.45267644 12.60880391 14.94140625 22.5234375 C15.14369545 31.07352781 10.08416217 37.61803434 4.5 43.609375 C3.35792522 44.7644279 2.18284472 45.88673438 1 47 C-5.60367143 44.13261635 -10.43014893 37.59353803 -13.3359375 31.125 C-15.22712766 25.07319149 -14.62771489 19.68251251 -12.0625 13.9375 C-9.0128497 8.37585452 -4.67530514 4.21694189 0 0 Z M-4 10 C-5.98 12.97 -5.98 12.97 -8 16 C-7.67 16.66 -7.34 17.32 -7 18 C-6.401875 17.505 -5.80375 17.01 -5.1875 16.5 C-3 15 -3 15 0 15 C0 14.34 0 13.68 0 13 C-0.99 13 -1.98 13 -3 13 C-3.33 12.01 -3.66 11.02 -4 10 Z M-9 18 C-8 21 -8 21 -8 21 Z M-2 19 C-1.34 19.66 -0.68 20.32 0 21 C0 20.34 0 19.68 0 19 C-0.66 19 -1.32 19 -2 19 Z M-3 22 C-3 22.66 -3 23.32 -3 24 C-2.01 24 -1.02 24 0 24 C-0.33 23.34 -0.66 22.68 -1 22 C-1.66 22 -2.32 22 -3 22 Z M-9 23 C-8 25 -8 25 -8 25 Z M-9 26 C-8.67 27.65 -8.34 29.3 -8 31 C-7.67 30.01 -7.34 29.02 -7 28 C-7.66 27.34 -8.32 26.68 -9 26 Z M-7 31 C-6.34 32.65 -5.68 34.3 -5 36 C-3.35 35.34 -1.7 34.68 0 34 C0 33.34 0 32.68 0 32 C-2.31 31.67 -4.62 31.34 -7 31 Z M-4 36 C-3 38 -3 38 -3 38 Z M-2 39 C-1.34 39.66 -0.68 40.32 0 41 C0 40.34 0 39.68 0 39 C-0.66 39 -1.32 39 -2 39 Z " fill="#0D0D0D" transform="translate(39,3)"/>
<path d="M0 0 C11.71428571 -0.42857143 11.71428571 -0.42857143 17 3 C17.474375 2.505 17.94875 2.01 18.4375 1.5 C22.16919689 -0.68440794 25.76279307 -0.42535668 30 0 C30.66 0.33 31.32 0.66 32 1 C32 2.98 32 4.96 32 7 C29.03 6.67 26.06 6.34 23 6 C24.299375 6.474375 25.59875 6.94875 26.9375 7.4375 C30.875 8.875 30.875 8.875 32 10 C32.33 8.35 32.66 6.7 33 5 C34.98 5 36.96 5 39 5 C39 9.95 39 14.9 39 20 C37.35 20 35.7 20 34 20 C33.34 19.01 32.68 18.02 32 17 C31.525625 17.495 31.05125 17.99 30.5625 18.5 C26.81801931 20.69189114 23.24884138 20.4068872 19 20 C18.01 19.67 17.02 19.34 16 19 C16 17.02 16 15.04 16 13 C18.64 13.33 21.28 13.66 24 14 C19.7362719 11.64089647 19.7362719 11.64089647 15 11 C14.38125 11.495 13.7625 11.99 13.125 12.5 C10.5501379 14.31754972 9.08314012 14.25692834 6 14 C6 15.98 6 17.96 6 20 C4.02 20 2.04 20 0 20 C0 13.4 0 6.8 0 0 Z M6 5 C6 6.32 6 7.64 6 9 C7.32 9 8.64 9 10 9 C10 7.68 10 6.36 10 5 C8.68 5 7.36 5 6 5 Z M33 11 C34 15 34 15 34 15 Z " fill="#000000" transform="translate(3,56)"/>
<path d="M0 0 C10.96617336 -0.602537 10.96617336 -0.602537 13.91015625 1.11328125 C15.25 2.5 15.25 2.5 17 5 C16.67 5.94875 16.34 6.8975 16 7.875 C14.89840809 10.77062452 14.89840809 10.77062452 15 13 C15.96113866 14.36161311 16.95884159 15.69855198 18 17 C18.79211929 15.10435574 19.58367576 13.20847629 20.375 11.3125 C20.81585938 10.25675781 21.25671875 9.20101562 21.7109375 8.11328125 C22.82757462 5.41643343 23.92291801 2.71283736 25 0 C27.31 0 29.62 0 32 0 C33.00816056 2.58041096 34.0067111 5.16386944 35 7.75 C35.42925781 8.84441406 35.42925781 8.84441406 35.8671875 9.9609375 C36.13789062 10.66992188 36.40859375 11.37890625 36.6875 12.109375 C37.06455078 13.08342285 37.06455078 13.08342285 37.44921875 14.07714844 C38 16 38 16 38 20 C36.02 20 34.04 20 32 20 C32 18.68 32 17.36 32 16 C29.69 16 27.38 16 25 16 C24.67 17.32 24.34 18.64 24 20 C19.94483097 20.3443068 16.04210448 20.54433674 12 20 C9.375 17.0625 9.375 17.0625 8 14 C7.34 13.67 6.68 13.34 6 13 C6 15.31 6 17.62 6 20 C4.02 20 2.04 20 0 20 C0 13.4 0 6.8 0 0 Z M6 5 C6.33 6.32 6.66 7.64 7 9 C7 8.01 7 7.02 7 6 C7.99 5.67 8.98 5.34 10 5 C8.68 5 7.36 5 6 5 Z M28 8 C27.67 9.32 27.34 10.64 27 12 C27.66 11.67 28.32 11.34 29 11 C28.67 10.01 28.34 9.02 28 8 Z " fill="#020202" transform="translate(43,56)"/>
<path d="M0 0 C5.30017941 3.97513456 9.25389459 7.81280496 10.453125 14.54296875 C10.91453916 21.97802873 8.67170264 27.25680593 4 33 C1.796875 34.78125 1.796875 34.78125 0 36 C0 35.01 0 34.02 0 33 C-0.99 33 -1.98 33 -3 33 C-3.33 31.68 -3.66 30.36 -4 29 C-2.68 28.67 -1.36 28.34 0 28 C-0.12375 26.72125 -0.2475 25.4425 -0.375 24.125 C-0.44460937 23.40570313 -0.51421875 22.68640625 -0.5859375 21.9453125 C-0.86374749 19.77331755 -0.86374749 19.77331755 -3 18 C-2.01 18 -1.02 18 0 18 C0 16.35 0 14.7 0 13 C1.9375 13.3125 1.9375 13.3125 4 14 C4.33 14.99 4.66 15.98 5 17 C5.66 15.35 6.32 13.7 7 12 C6.401875 11.855625 5.80375 11.71125 5.1875 11.5625 C3.43849596 11.1127561 1.71322977 10.57107659 0 10 C0 9.01 0 8.02 0 7 C-0.99 7 -1.98 7 -3 7 C-2.67 5.35 -2.34 3.7 -2 2 C-1.34 2 -0.68 2 0 2 C0 1.34 0 0.68 0 0 Z " fill="#505050" transform="translate(39,9)"/>
<path d="M0 0 C0.77029541 0.24556641 0.77029541 0.24556641 1.55615234 0.49609375 C4.77781062 1.16037973 7.81217046 1.09266638 11.1015625 1.0625 C11.77923676 1.05871338 12.45691101 1.05492676 13.15512085 1.05102539 C15.31181298 1.03884578 17.46836907 1.02020939 19.625 1 C22.47135043 0.97345766 25.31763526 0.95344994 28.1640625 0.9375 C29.42686035 0.92589844 30.6896582 0.91429688 31.99072266 0.90234375 C35 1 35 1 37 2 C37.33 1.34 37.66 0.68 38 0 C38.66 0.33 39.32 0.66 40 1 C41.8863912 1.084915 43.77578515 1.107193 45.6640625 1.09765625 C47.34628906 1.09282227 47.34628906 1.09282227 49.0625 1.08789062 C50.8259375 1.07532227 50.8259375 1.07532227 52.625 1.0625 C53.80835938 1.05798828 54.99171875 1.05347656 56.2109375 1.04882812 C59.14067507 1.03701467 62.07031272 1.02054258 65 1 C64.67 2.65 64.34 4.3 64 6 C62.31970703 5.87431641 62.31970703 5.87431641 60.60546875 5.74609375 C59.13283444 5.64291555 57.66017692 5.54006821 56.1875 5.4375 C55.44951172 5.38142578 54.71152344 5.32535156 53.95117188 5.26757812 C50.63211484 5.04230276 48.18767436 4.93744188 45 6 C43.58693898 6.09206175 42.16996141 6.1306709 40.75390625 6.1328125 C39.50552979 6.13559204 39.50552979 6.13559204 38.23193359 6.13842773 C37.35102051 6.13399658 36.47010742 6.12956543 35.5625 6.125 C34.66611816 6.1237915 33.76973633 6.12258301 32.84619141 6.12133789 C26.89670463 6.08649228 21.03234339 5.79974478 15.1171875 5.12109375 C12.94405758 4.8206555 12.94405758 4.8206555 11 6 C8.95501575 5.91219597 6.91255052 5.75758462 4.875 5.5625 C3.77929688 5.46066406 2.68359375 5.35882813 1.5546875 5.25390625 C0.71164063 5.17011719 -0.13140625 5.08632812 -1 5 C-0.67 3.35 -0.34 1.7 0 0 Z " fill="#151515" transform="translate(17,76)"/>
<path d="M0 0 C0.99 0.4125 1.98 0.825 3 1.25 C4.32911682 1.59976758 5.66082739 1.94096017 7 2.25 C7.6875 3.9375 7.6875 3.9375 8 6.25 C6.625 9 6.625 9 5 11.25 C4.67 11.25 4.34 11.25 4 11.25 C3.67 9.27 3.34 7.29 3 5.25 C1.68 5.25 0.36 5.25 -1 5.25 C-1 6.24 -1 7.23 -1 8.25 C-1.66 8.91 -2.32 9.57 -3 10.25 C-2.01 10.58 -1.02 10.91 0 11.25 C0 13.23 0 15.21 0 17.25 C-1.8125 17.875 -1.8125 17.875 -4 18.25 C-7 16.25 -7 16.25 -7.6875 13.625 C-7.790625 12.84125 -7.89375 12.0575 -8 11.25 C-8.66 11.25 -9.32 11.25 -10 11.25 C-9.0829159 7.12312155 -8.13012148 3.50120593 -5.25 0.3125 C-3 -0.75 -3 -0.75 0 0 Z " fill="#141414" transform="translate(39,17.75)"/>
<path d="M0 0 C0.53012695 0.16298584 1.06025391 0.32597168 1.60644531 0.49389648 C4.55369677 1.11707603 7.28389145 1.11186844 10.296875 1.09765625 C12.10478516 1.09282227 12.10478516 1.09282227 13.94921875 1.08789062 C15.83060547 1.07532227 15.83060547 1.07532227 17.75 1.0625 C19.01972656 1.05798828 20.28945313 1.05347656 21.59765625 1.04882812 C24.73181836 1.03704556 27.86588541 1.02059416 31 1 C31 1.66 31 2.32 31 3 C30.01 3 29.02 3 28 3 C27.67 3.99 27.34 4.98 27 6 C26.01257813 5.91621094 25.02515625 5.83242187 24.0078125 5.74609375 C22.72648437 5.64425781 21.44515625 5.54242188 20.125 5.4375 C18.84882812 5.33308594 17.57265625 5.22867188 16.2578125 5.12109375 C13.11356058 4.74316633 13.11356058 4.74316633 11 6 C8.95501575 5.91219597 6.91255052 5.75758462 4.875 5.5625 C3.77929688 5.46066406 2.68359375 5.35882813 1.5546875 5.25390625 C0.71164063 5.17011719 -0.13140625 5.08632812 -1 5 C-0.67 3.35 -0.34 1.7 0 0 Z " fill="#030303" transform="translate(17,76)"/>
<path d="M0 0 C4.76414273 3.57310705 7.37082252 6.64052284 10 12 C10 12.66 10 13.32 10 14 C8.68 13.67 7.36 13.34 6 13 C6 12.34 6 11.68 6 11 C4.35 11 2.7 11 1 11 C0.67 9.68 0.34 8.36 0 7 C-0.99 7 -1.98 7 -3 7 C-2.67 5.35 -2.34 3.7 -2 2 C-1.34 2 -0.68 2 0 2 C0 1.34 0 0.68 0 0 Z " fill="#4F4F4F" transform="translate(39,9)"/>
<path d="M0 0 C1.9375 0.3125 1.9375 0.3125 4 1 C4.33 1.99 4.66 2.98 5 4 C5.33 3.34 5.66 2.68 6 2 C6.99 2 7.98 2 9 2 C8.50769231 8.4 8.50769231 8.4 5.9375 11.4375 C5.298125 11.953125 4.65875 12.46875 4 13 C2 10 2 10 2 8 C-0.475 7.01 -0.475 7.01 -3 6 C-2.01 5.67 -1.02 5.34 0 5 C0 3.35 0 1.7 0 0 Z " fill="#2B2B2B" transform="translate(39,22)"/>
<path d="M0 0 C3.96 0 7.92 0 12 0 C12 1.32 12 2.64 12 4 C8.04 4 4.08 4 0 4 C0 2.68 0 1.36 0 0 Z " fill="#020202" transform="translate(3,77)"/>
<path d="M0 0 C1.98 1.65 3.96 3.3 6 5 C5.67 5.66 5.34 6.32 5 7 C4.34 6.67 3.68 6.34 3 6 C0.99199544 6.28112064 -1.01014051 6.61067967 -3 7 C-2.67 5.35 -2.34 3.7 -2 2 C-1.34 2 -0.68 2 0 2 C0 1.34 0 0.68 0 0 Z " fill="#5A5A5A" transform="translate(39,9)"/>
<path d="M0 0 C1.98 0 3.96 0 6 0 C7.1875 1.625 7.1875 1.625 8 4 C6.625 7.25 6.625 7.25 5 10 C4.67 10 4.34 10 4 10 C3.67 8.02 3.34 6.04 3 4 C2.01 3.67 1.02 3.34 0 3 C0 2.01 0 1.02 0 0 Z " fill="#1D1D1D" transform="translate(39,19)"/>
<path d="M0 0 C1.65 0 3.3 0 5 0 C5 1.65 5 3.3 5 5 C3.02 5 1.04 5 -1 5 C-0.67 3.35 -0.34 1.7 0 0 Z " fill="#040404" transform="translate(37,55)"/>
<path d="M0 0 C0.66 0 1.32 0 2 0 C2.54330269 6.65545792 1.77304004 10.45834744 -2 16 C-3 14 -3 14 -2.44140625 11.7578125 C-2.15136719 10.88898437 -1.86132812 10.02015625 -1.5625 9.125 C-0.43414668 5.73488017 0 3.65694328 0 0 Z " fill="#5B5B5B" transform="translate(47,23)"/>
<path d="M0 0 C1.32 0.33 2.64 0.66 4 1 C3.67 2.65 3.34 4.3 3 6 C2.01 5.67 1.02 5.34 0 5 C0 3.35 0 1.7 0 0 Z " fill="#535353" transform="translate(39,22)"/>
<path d="M0 0 C0.33 0 0.66 0 1 0 C1 5.94 1 11.88 1 18 C0.67 18 0.34 18 0 18 C0 12.06 0 6.12 0 0 Z " fill="#000000" transform="translate(1,57)"/>
<path d="M0 0 C0.33 0 0.66 0 1 0 C1 2.64 1 5.28 1 8 C0.67 8 0.34 8 0 8 C0 5.36 0 2.72 0 0 Z " fill="#0D0D0D" transform="translate(23,23)"/>
<path d="M0 0 C1.65 0 3.3 0 5 0 C4.67 0.66 4.34 1.32 4 2 C2.68 1.34 1.36 0.68 0 0 Z " fill="#000000" transform="translate(69,73)"/>
<path d="M0 0 C0.99 1.485 0.99 1.485 2 3 C1.34 3.66 0.68 4.32 0 5 C0 3.35 0 1.7 0 0 Z " fill="#000000" transform="translate(50,70)"/>
<path d="M0 0 C0.99 0.33 1.98 0.66 3 1 C2.34 1 1.68 1 1 1 C0.67 1.99 0.34 2.98 0 4 C0 2.68 0 1.36 0 0 Z " fill="#000000" transform="translate(10,71)"/>
<path d="M0 0 C1.98 0 3.96 0 6 0 C6 0.33 6 0.66 6 1 C4.02 1 2.04 1 0 1 C0 0.67 0 0.34 0 0 Z " fill="#000000" transform="translate(25,54)"/>
<path d="M0 0 C1 4 1 4 1 4 Z " fill="#000000" transform="translate(17,70)"/>
<path d="M0 0 C0.66 0 1.32 0 2 0 C2 0.66 2 1.32 2 2 C1.34 2 0.68 2 0 2 C0 1.34 0 0.68 0 0 Z " fill="#030303" transform="translate(10,62)"/>
<path d="M0 0 C3 1 3 1 3 1 Z " fill="#000000" transform="translate(17,82)"/>
<path d="M0 0 C3 1 3 1 3 1 Z " fill="#000000" transform="translate(12,82)"/>
<path d="M0 0 C0.33 0.66 0.66 1.32 1 2 C0.34 1.67 -0.32 1.34 -1 1 C-0.67 0.67 -0.34 0.34 0 0 Z " fill="#000000" transform="translate(61,70)"/>
<path d="M0 0 C2 1 2 1 2 1 Z " fill="#141414" transform="translate(50,83)"/>
<path d="" fill="#010101" transform="translate(0,0)"/>
<path d="" fill="#000000" transform="translate(0,0)"/>
<path d="" fill="#010101" transform="translate(0,0)"/>
<path d="M0 0 C2 1 2 1 2 1 Z " fill="#000000" transform="translate(14,70)"/>
<path d="M0 0 C2 1 2 1 2 1 Z " fill="#000000" transform="translate(23,69)"/>
<path d="" fill="#010101" transform="translate(0,0)"/>
<path d="" fill="#010101" transform="translate(0,0)"/>
<path d="" fill="#000000" transform="translate(0,0)"/>
<path d="" fill="#010101" transform="translate(0,0)"/>
<path d="" fill="#000000" transform="translate(0,0)"/>
<path d="M0 0 C2 1 2 1 2 1 Z " fill="#000000" transform="translate(30,62)"/>
<path d="" fill="#000000" transform="translate(0,0)"/>
<path d="M0 0 C2 1 2 1 2 1 Z " fill="#000000" transform="translate(55,55)"/>
<path d="M0 0 C2 1 2 1 2 1 Z " fill="#010101" transform="translate(33,55)"/>
<path d="" fill="#0A0A0A" transform="translate(0,0)"/>
<path d="" fill="#080808" transform="translate(0,0)"/>
<path d="" fill="#0C0C0C" transform="translate(0,0)"/>
<path d="" fill="#0A0A0A" transform="translate(0,0)"/>
<path d="" fill="#060606" transform="translate(0,0)"/>
<path d="" fill="#030303" transform="translate(0,0)"/>
<path d="" fill="#000000" transform="translate(0,0)"/>
<path d="" fill="#181818" transform="translate(0,0)"/>
<path d="" fill="#1C1C1C" transform="translate(0,0)"/>
<path d="" fill="#181818" transform="translate(0,0)"/>
<path d="" fill="#1C1C1C" transform="translate(0,0)"/>
<path d="" fill="#1C1C1C" transform="translate(0,0)"/>
<path d="" fill="#161616" transform="translate(0,0)"/>
<path d="" fill="#181818" transform="translate(0,0)"/>
<path d="" fill="#040404" transform="translate(0,0)"/>
<path d="" fill="#020202" transform="translate(0,0)"/>
<path d="" fill="#040404" transform="translate(0,0)"/>
<path d="" fill="#040404" transform="translate(0,0)"/>
<path d="" fill="#010101" transform="translate(0,0)"/>
<path d="" fill="#040404" transform="translate(0,0)"/>
<path d="" fill="#020202" transform="translate(0,0)"/>
<path d="" fill="#040404" transform="translate(0,0)"/>
<path d="" fill="#000000" transform="translate(0,0)"/>
<path d="" fill="#121212" transform="translate(0,0)"/>
<path d="" fill="#000000" transform="translate(0,0)"/>
<path d="" fill="#000000" transform="translate(0,0)"/>
<path d="" fill="#000000" transform="translate(0,0)"/>
<path d="" fill="#000000" transform="translate(0,0)"/>
<path d="" fill="#020202" transform="translate(0,0)"/>
<path d="" fill="#000000" transform="translate(0,0)"/>
<path d="" fill="#000000" transform="translate(0,0)"/>
<path d="" fill="#000000" transform="translate(0,0)"/>
<path d="" fill="#010101" transform="translate(0,0)"/>
<path d="" fill="#000000" transform="translate(0,0)"/>
<path d="" fill="#000000" transform="translate(0,0)"/>
<path d="" fill="#000000" transform="translate(0,0)"/>
<path d="" fill="#000000" transform="translate(0,0)"/>
<path d="" fill="#000000" transform="translate(0,0)"/>
<path d="" fill="#000000" transform="translate(0,0)"/>
<path d="" fill="#000000" transform="translate(0,0)"/>
<path d="" fill="#000000" transform="translate(0,0)"/>
<path d="" fill="#000000" transform="translate(0,0)"/>
<path d="" fill="#000000" transform="translate(0,0)"/>
<path d="" fill="#000000" transform="translate(0,0)"/>
<path d="" fill="#000000" transform="translate(0,0)"/>
<path d="" fill="#000000" transform="translate(0,0)"/>
<path d="" fill="#000000" transform="translate(0,0)"/>
<path d="" fill="#000000" transform="translate(0,0)"/>
<path d="" fill="#000000" transform="translate(0,0)"/>
<path d="" fill="#000000" transform="translate(0,0)"/>
<path d="" fill="#000000" transform="translate(0,0)"/>
<path d="" fill="#000000" transform="translate(0,0)"/>
<path d="" fill="#080808" transform="translate(0,0)"/>
<path d="" fill="#000000" transform="translate(0,0)"/>
<path d="" fill="#0C0C0C" transform="translate(0,0)"/>
<path d="" fill="#0C0C0C" transform="translate(0,0)"/>
<path d="" fill="#000000" transform="translate(0,0)"/>
<path d="" fill="#0E0E0E" transform="translate(0,0)"/>
<path d="" fill="#000000" transform="translate(0,0)"/>
<path d="" fill="#0C0C0C" transform="translate(0,0)"/>
<path d="" fill="#0C0C0C" transform="translate(0,0)"/>
<path d="" fill="#000000" transform="translate(0,0)"/>
<path d="" fill="#0E0E0E" transform="translate(0,0)"/>
<path d="" fill="#040404" transform="translate(0,0)"/>
<path d="" fill="#0E0E0E" transform="translate(0,0)"/>
<path d="" fill="#0C0C0C" transform="translate(0,0)"/>
<path d="" fill="#000000" transform="translate(0,0)"/>
<path d="" fill="#000000" transform="translate(0,0)"/>
<path d="" fill="#0C0C0C" transform="translate(0,0)"/>
<path d="" fill="#000000" transform="translate(0,0)"/>
<path d="" fill="#101010" transform="translate(0,0)"/>
<path d="" fill="#101010" transform="translate(0,0)"/>
<path d="" fill="#101010" transform="translate(0,0)"/>
<path d="" fill="#000000" transform="translate(0,0)"/>
<path d="" fill="#101010" transform="translate(0,0)"/>
<path d="" fill="#080808" transform="translate(0,0)"/>
<path d="" fill="#0E0E0E" transform="translate(0,0)"/>
<path d="" fill="#0A0A0A" transform="translate(0,0)"/>
<path d="" fill="#040404" transform="translate(0,0)"/>
<path d="" fill="#0C0C0C" transform="translate(0,0)"/>
<path d="" fill="#000000" transform="translate(0,0)"/>
<path d="" fill="#0E0E0E" transform="translate(0,0)"/>
<path d="" fill="#0A0A0A" transform="translate(0,0)"/>
<path d="" fill="#040404" transform="translate(0,0)"/>
<path d="" fill="#0A0A0A" transform="translate(0,0)"/>
<path d="" fill="#000000" transform="translate(0,0)"/>
<path d="" fill="#000000" transform="translate(0,0)"/>
<path d="" fill="#0A0A0A" transform="translate(0,0)"/>
<path d="" fill="#101010" transform="translate(0,0)"/>
<path d="" fill="#121212" transform="translate(0,0)"/>
<path d="" fill="#0A0A0A" transform="translate(0,0)"/>
<path d="" fill="#101010" transform="translate(0,0)"/>
<path d="" fill="#000000" transform="translate(0,0)"/>
<path d="" fill="#0C0C0C" transform="translate(0,0)"/>
<path d="" fill="#0C0C0C" transform="translate(0,0)"/>
<path d="" fill="#000000" transform="translate(0,0)"/>
<path d="" fill="#101010" transform="translate(0,0)"/>
<path d="" fill="#000000" transform="translate(0,0)"/>
<path d="" fill="#101010" transform="translate(0,0)"/>
<path d="" fill="#000000" transform="translate(0,0)"/>
<path d="" fill="#101010" transform="translate(0,0)"/>
<path d="" fill="#080808" transform="translate(0,0)"/>
<path d="" fill="#0E0E0E" transform="translate(0,0)"/>
</svg>
